<svg width="216" height="32" xmlns="http://www.w3.org/2000/svg">

 <g>
  <title>background</title>
  <rect fill="none" id="canvas_background" height="402" width="582" y="-1" x="-1"/>
 </g>
 <g>
  <title>Layer 1</title>
  <path id="svg_1" d="m98.3,18.7c-0.3,0 -0.7,0 -1.2,0.1c-0.5,0 -0.9,0.1 -1.4,0.3c-0.5,0.2 -0.8,0.4 -1.2,0.7c-0.3,0.3 -0.5,0.7 -0.5,1.3c0,0.3 0.1,0.6 0.2,0.8c0.1,0.2 0.3,0.5 0.5,0.6c0.2,0.2 0.5,0.3 0.7,0.4c0.3,0.1 0.5,0.1 0.8,0.1c1.1,0 2,-0.3 2.5,-0.9c0.6,-0.6 0.9,-1.4 0.9,-2.3l0,-1.1c-0.2,0 -0.5,0 -0.7,0c-0.1,0 -0.3,0 -0.6,0z" fill="none"/>
  <path id="svg_2" d="m54.7,14.9c-0.3,-0.3 -0.6,-0.6 -1,-0.7c-0.4,-0.2 -0.8,-0.3 -1.3,-0.3c-0.6,0 -1,0.1 -1.4,0.3c-0.4,0.2 -0.7,0.5 -1,0.8c-0.3,0.3 -0.5,0.7 -0.6,1.1c-0.1,0.4 -0.2,0.8 -0.3,1.2l6.3,0c0,-0.5 -0.1,-0.9 -0.2,-1.3c0,-0.4 -0.2,-0.8 -0.5,-1.1z" fill="none"/>
  <path id="svg_3" d="m151.7,14.9c-0.3,-0.3 -0.6,-0.6 -1,-0.7c-0.4,-0.2 -0.8,-0.3 -1.3,-0.3c-0.6,0 -1,0.1 -1.4,0.3c-0.4,0.2 -0.7,0.5 -1,0.8c-0.3,0.3 -0.5,0.7 -0.6,1.1c-0.1,0.4 -0.2,0.8 -0.3,1.2l6.3,0c0,-0.5 -0.1,-0.9 -0.2,-1.3c-0.1,-0.4 -0.3,-0.8 -0.5,-1.1z" fill="none"/>
  <path id="svg_4" d="m42.7,15.4c-0.3,-0.4 -0.6,-0.8 -1.1,-1c-0.4,-0.3 -0.9,-0.4 -1.6,-0.4c-0.6,0 -1.1,0.1 -1.6,0.4c-0.5,0.3 -0.8,0.6 -1.1,1c-0.3,0.4 -0.5,0.9 -0.7,1.5c-0.1,0.5 -0.2,1.1 -0.2,1.7c0,0.5 0.1,1 0.2,1.6c0.1,0.5 0.3,1 0.6,1.5c0.3,0.4 0.7,0.8 1.1,1.1c0.5,0.3 1,0.4 1.6,0.4c0.6,0 1.1,-0.2 1.6,-0.5c0.4,-0.3 0.8,-0.7 1.1,-1.1c0.3,-0.5 0.5,-1 0.6,-1.5c0.1,-0.5 0.2,-1 0.2,-1.5c0,-0.5 0,-1.1 -0.2,-1.6c-0.1,-0.7 -0.3,-1.2 -0.5,-1.6z" fill="none"/>
  <path id="svg_5" d="m118.5,18.7c-0.3,0 -0.7,0 -1.2,0.1c-0.5,0 -0.9,0.1 -1.4,0.3c-0.5,0.2 -0.8,0.4 -1.2,0.7c-0.3,0.3 -0.5,0.7 -0.5,1.3c0,0.3 0.1,0.6 0.2,0.8c0.1,0.2 0.3,0.5 0.5,0.6c0.2,0.2 0.5,0.3 0.7,0.4c0.3,0.1 0.5,0.1 0.8,0.1c1.1,0 2,-0.3 2.5,-0.9s0.9,-1.4 0.9,-2.3l0,-1.1c-0.2,0 -0.5,0 -0.7,0c-0.1,0 -0.4,0 -0.6,0z" fill="none"/>
  <path id="svg_6" d="m6.2,11.2c-0.3,0.6 -0.6,1.3 -0.8,2c-0.2,0.9 -0.3,1.8 -0.3,2.8c0,6 4.9,10.9 10.9,10.9c0,0 0,0 0.1,0c6,0 10.9,-4.9 10.9,-10.9c0,-3 -1.2,-5.8 -3.3,-7.8c-2,-1.9 -4.7,-3.1 -7.7,-3.1c-4.3,0 -8,2.5 -9.8,6.1z" fill="none"/>
  <path id="svg_7" d="m86.1,11.6c-0.5,-0.5 -1.2,-0.9 -1.9,-1.2c-0.7,-0.3 -1.5,-0.4 -2.4,-0.4l-2.8,0l0,12.5l2.5,0c2.1,0 3.6,-0.5 4.7,-1.5c1.1,-1 1.6,-2.6 1.6,-4.7c0,-1 -0.2,-1.8 -0.5,-2.6c-0.3,-0.9 -0.7,-1.5 -1.2,-2.1z" fill="none"/>
  <path id="svg_8" d="m191.6,15.3c-0.3,-0.4 -0.7,-0.8 -1.2,-1c-0.5,-0.3 -1,-0.4 -1.6,-0.4c-0.6,0 -1.1,0.1 -1.6,0.4c-0.5,0.3 -0.9,0.6 -1.2,1c-0.3,0.4 -0.6,0.9 -0.8,1.5c-0.2,0.5 -0.3,1.1 -0.3,1.7c0,0.5 0.1,1.1 0.2,1.6c0.2,0.5 0.4,1 0.7,1.5c0.3,0.4 0.7,0.8 1.2,1.1c0.5,0.3 1.1,0.4 1.7,0.4c0.7,0 1.2,-0.1 1.7,-0.4c0.5,-0.3 0.9,-0.6 1.2,-1.1s0.5,-0.9 0.7,-1.5c0.2,-0.5 0.2,-1.1 0.2,-1.6c0,-0.6 -0.1,-1.1 -0.3,-1.7c0,-0.6 -0.3,-1 -0.6,-1.5z" fill="none"/>
  <path id="svg_9" d="m44.5,14c-0.4,-0.6 -1,-1 -1.6,-1.3c-0.7,-0.3 -1.4,-0.5 -2.3,-0.5c-0.5,0 -1,0.1 -1.5,0.2c-0.4,0.1 -0.8,0.3 -1.2,0.5c-0.4,0.2 -0.6,0.4 -0.9,0.6c-0.2,0.2 -0.4,0.5 -0.6,0.7l0,0l0,-1.7l-2.1,0l0,17.2l2.2,0l0,-6.7l0,0c0.3,0.6 0.8,1 1.5,1.4c0.6,0.4 1.5,0.6 2.6,0.6c0.9,0 1.7,-0.2 2.4,-0.6c0.7,-0.4 1.2,-0.9 1.6,-1.5c0.4,-0.6 0.7,-1.3 0.9,-2.1c0.2,-0.8 0.3,-1.6 0.3,-2.4c0,-0.8 -0.1,-1.6 -0.3,-2.3c-0.2,-0.9 -0.6,-1.6 -1,-2.1zm-1.3,6c-0.1,0.5 -0.3,1 -0.6,1.5c-0.3,0.5 -0.6,0.8 -1.1,1.1c-0.4,0.3 -0.9,0.5 -1.6,0.5c-0.6,0 -1.2,-0.1 -1.6,-0.4c-0.5,-0.3 -0.8,-0.6 -1.1,-1.1c-0.3,-0.4 -0.5,-0.9 -0.6,-1.5c-0.1,-0.5 -0.2,-1.1 -0.2,-1.6c0,-0.6 0.1,-1.1 0.2,-1.7c0.1,-0.5 0.4,-1 0.7,-1.5c0.3,-0.4 0.7,-0.8 1.1,-1c0.5,-0.3 1,-0.4 1.6,-0.4c0.6,0 1.1,0.1 1.6,0.4c0.4,0.3 0.8,0.6 1.1,1c0.3,0.4 0.5,0.9 0.6,1.5c0.1,0.5 0.2,1.1 0.2,1.6c-0.1,0.5 -0.1,1 -0.3,1.6z" fill="#000000"/>
  <path id="svg_10" d="m57.6,16.3c-0.2,-0.8 -0.5,-1.6 -0.9,-2.2c-0.4,-0.6 -1,-1.1 -1.6,-1.4c-0.7,-0.4 -1.5,-0.5 -2.6,-0.5c-0.9,0 -1.6,0.2 -2.3,0.5c-0.7,0.3 -1.3,0.7 -1.8,1.3c-0.5,0.5 -0.9,1.2 -1.2,1.9c-0.3,0.7 -0.4,1.6 -0.4,2.5c0,1 0.1,1.9 0.4,2.7c0.3,0.8 0.6,1.5 1.2,2.1c0.5,0.6 1.2,1 2,1.3c0.8,0.3 1.7,0.5 2.8,0.5c0.5,0 0.9,0 1.3,-0.1c0.4,-0.1 0.7,-0.1 1,-0.2c0.3,-0.1 0.6,-0.2 0.8,-0.3c0.2,-0.1 0.5,-0.2 0.7,-0.3l0,-2.2c-0.1,0.1 -0.3,0.2 -0.6,0.4c-0.3,0.1 -0.6,0.3 -0.9,0.4c-0.3,0.1 -0.7,0.2 -1.1,0.3c-0.5,0 -0.8,0 -1.2,0c-0.5,0 -1,-0.1 -1.5,-0.3c-0.5,-0.2 -0.9,-0.5 -1.3,-0.8c-0.4,-0.4 -0.7,-0.8 -0.9,-1.3c-0.2,-0.5 -0.3,-1 -0.3,-1.6l8.7,0c0,-1 -0.1,-1.9 -0.3,-2.7zm-8.4,1c0,-0.4 0.1,-0.8 0.3,-1.2c0.1,-0.4 0.3,-0.8 0.6,-1.1c0.3,-0.3 0.6,-0.6 1,-0.8c0.4,-0.2 0.9,-0.3 1.4,-0.3c0.5,0 0.9,0.1 1.3,0.3c0.4,0.2 0.7,0.4 1,0.7c0.3,0.3 0.4,0.7 0.6,1.1c0.1,0.4 0.2,0.9 0.2,1.3l-6.4,0z" fill="#000000"/>
  <path id="svg_11" d="m65.9,12.1c-0.9,0 -1.7,0.2 -2.4,0.6c-0.7,0.4 -1.3,0.9 -1.6,1.6l0,0l0,-1.9l-2.2,0l0,12.2l2.2,0l0,-5.6c0,-0.7 0.1,-1.4 0.2,-2c0.1,-0.6 0.4,-1.1 0.7,-1.6c0.3,-0.4 0.7,-0.8 1.2,-1c0.5,-0.2 1,-0.4 1.7,-0.4c1,0.1 1.7,0.4 2,1.1c0.4,0.7 0.5,1.8 0.5,3.2l0,6.3l2.2,0l0,-7.2c0,-1.6 -0.4,-2.9 -1.1,-3.8c-0.7,-1 -1.8,-1.5 -3.4,-1.5z" fill="#000000"/>
  <path id="svg_12" d="m87.8,10.1c-0.8,-0.7 -1.8,-1.3 -2.9,-1.6c-1.1,-0.4 -2.2,-0.6 -3.5,-0.6l-4.9,0l0,16.7l4.9,0c1.4,0 2.6,-0.2 3.7,-0.5c1.1,-0.4 2,-0.9 2.8,-1.6c0.8,-0.7 1.4,-1.6 1.8,-2.6c0.4,-1.1 0.6,-2.3 0.6,-3.7c0,-1.3 -0.2,-2.4 -0.7,-3.4c-0.4,-1.2 -1,-2 -1.8,-2.7zm-1.6,10.8c-1.1,1 -2.7,1.5 -4.7,1.5l-2.5,0l0,-12.4l2.8,0c0.9,0 1.7,0.1 2.4,0.4c0.7,0.3 1.4,0.7 1.9,1.2c0.5,0.5 1,1.2 1.3,1.9c0.3,0.8 0.5,1.6 0.5,2.6c-0.1,2.2 -0.6,3.8 -1.7,4.8z" fill="#000000"/>
  <path id="svg_13" d="m102,22.2l0,-5c0,-1.7 -0.4,-2.9 -1.1,-3.8c-0.8,-0.8 -2,-1.3 -3.8,-1.3c-0.8,0 -1.5,0.1 -2.2,0.3c-0.7,0.2 -1.3,0.5 -1.8,0.8l0.1,1.9c0.5,-0.4 1,-0.7 1.6,-0.9c0.6,-0.2 1.3,-0.3 1.9,-0.3c1.1,0 1.9,0.3 2.4,0.8c0.4,0.5 0.7,1.3 0.7,2.4c-0.4,0 -0.8,0 -1.2,0c-0.4,0 -0.7,0 -1.2,0c-0.6,0 -1.2,0.1 -1.9,0.2c-0.7,0.1 -1.3,0.4 -1.8,0.7c-0.6,0.3 -1,0.7 -1.4,1.2c-0.4,0.5 -0.6,1.1 -0.6,1.9c0,0.7 0.1,1.2 0.3,1.7s0.5,0.9 0.9,1.2c0.4,0.3 0.9,0.5 1.4,0.7c0.5,0.1 1.1,0.2 1.8,0.2c0.5,0 1,-0.1 1.4,-0.2c0.4,-0.1 0.8,-0.3 1.1,-0.5c0.3,-0.2 0.6,-0.4 0.8,-0.6c0.2,-0.2 0.4,-0.4 0.5,-0.6l0,0l0,1.6l2.1,0c0,-0.2 -0.1,-0.4 -0.1,-0.8c0.1,-0.4 0.1,-0.9 0.1,-1.6zm-2.2,-2.4c0,0.9 -0.3,1.7 -0.9,2.3c-0.6,0.6 -1.4,0.9 -2.5,0.9c-0.3,0 -0.5,0 -0.8,-0.1c-0.3,-0.1 -0.5,-0.2 -0.7,-0.4c-0.2,-0.2 -0.4,-0.4 -0.5,-0.6c-0.1,-0.2 -0.2,-0.5 -0.2,-0.8c0,-0.5 0.2,-1 0.5,-1.3c0.3,-0.3 0.7,-0.5 1.2,-0.7c0.5,-0.2 0.9,-0.3 1.4,-0.3c0.5,0 0.9,-0.1 1.2,-0.1c0.2,0 0.5,0 0.7,0c0.2,0 0.5,0 0.7,0l0,1.1l-0.1,0z" fill="#000000"/>
  <path id="svg_14" d="m109.7,23c-0.5,0 -1,-0.2 -1.3,-0.5c-0.4,-0.4 -0.6,-0.9 -0.6,-1.6l0,-6.7l3.2,0l0,-1.8l-3.2,0l0,-3.5l-2.2,0.7l0,2.8l-2.7,0l0,1.8l2.7,0l0,7.1c0,1.2 0.3,2.1 1,2.7c0.7,0.6 1.6,0.8 2.7,0.8c0.4,0 0.7,0 1,-0.1c0.3,-0.1 0.6,-0.1 0.9,-0.2l0,-1.9c-0.2,0.1 -0.4,0.2 -0.6,0.3c-0.2,0.1 -0.5,0.1 -0.9,0.1z" fill="#000000"/>
  <path id="svg_15" d="m122.2,22.2l0,-5c0,-1.7 -0.4,-2.9 -1.1,-3.8c-0.8,-0.8 -2,-1.3 -3.8,-1.3c-0.8,0 -1.5,0.1 -2.2,0.3c-0.7,0.2 -1.3,0.5 -1.8,0.8l0.1,1.9c0.5,-0.4 1,-0.7 1.6,-0.9c0.6,-0.2 1.3,-0.3 1.9,-0.3c1.1,0 1.9,0.3 2.4,0.8c0.4,0.5 0.7,1.3 0.7,2.4c-0.4,0 -0.8,0 -1.2,0c-0.4,0 -0.7,0 -1.2,0c-0.6,0 -1.2,0.1 -1.9,0.2c-0.7,0.1 -1.3,0.4 -1.8,0.7c-0.6,0.3 -1,0.7 -1.4,1.2c-0.4,0.5 -0.6,1.1 -0.6,1.9c0,0.7 0.1,1.2 0.3,1.7s0.5,0.9 0.9,1.2c0.4,0.3 0.9,0.5 1.4,0.7c0.5,0.1 1.1,0.2 1.8,0.2c0.5,0 1,-0.1 1.4,-0.2c0.4,-0.1 0.8,-0.3 1.1,-0.5c0.3,-0.2 0.6,-0.4 0.8,-0.6c0.2,-0.2 0.4,-0.4 0.5,-0.6l0,0l0,1.6l2.1,0c0,-0.2 -0.1,-0.4 -0.1,-0.8c0.1,-0.4 0.1,-0.9 0.1,-1.6zm-2.3,-2.4c0,0.9 -0.3,1.7 -0.9,2.3s-1.4,0.9 -2.5,0.9c-0.3,0 -0.5,0 -0.8,-0.1c-0.3,-0.1 -0.5,-0.2 -0.7,-0.4c-0.2,-0.2 -0.4,-0.4 -0.5,-0.6c-0.1,-0.2 -0.2,-0.5 -0.2,-0.8c0,-0.5 0.2,-1 0.5,-1.3c0.3,-0.3 0.7,-0.5 1.2,-0.7c0.5,-0.2 0.9,-0.3 1.4,-0.3c0.5,0 0.9,-0.1 1.2,-0.1c0.2,0 0.5,0 0.7,0c0.2,0 0.5,0 0.7,0l0,1.1l-0.1,0z" fill="#000000"/>
  <polygon id="svg_16" points="139.4,21.3 139.3,21.3 132,7.9 128.7,7.9 128.7,24.6 131.1,24.6 131.1,10.9 131.1,10.9 138.7,24.6 141.7,24.6 141.7,7.9 139.4,7.9" fill="#000000"/>
  <path id="svg_17" d="m154.6,16.3c-0.2,-0.8 -0.5,-1.6 -0.9,-2.2c-0.4,-0.6 -1,-1.1 -1.6,-1.4c-0.7,-0.4 -1.5,-0.5 -2.6,-0.5c-0.9,0 -1.6,0.2 -2.3,0.5c-0.7,0.3 -1.3,0.7 -1.8,1.3c-0.5,0.5 -0.9,1.2 -1.2,1.9c-0.3,0.7 -0.4,1.6 -0.4,2.5c0,1 0.1,1.9 0.4,2.7c0.3,0.8 0.6,1.5 1.2,2.1c0.5,0.6 1.2,1 2,1.3c0.8,0.3 1.7,0.5 2.8,0.5c0.5,0 0.9,0 1.3,-0.1c0.4,-0.1 0.7,-0.1 1,-0.2c0.3,-0.1 0.6,-0.2 0.8,-0.3c0.2,-0.1 0.5,-0.2 0.7,-0.3l0,-2.2c-0.1,0.1 -0.3,0.2 -0.6,0.4c-0.3,0.1 -0.6,0.3 -0.9,0.4c-0.3,0.1 -0.7,0.2 -1.1,0.3c-0.4,0.1 -0.8,0.1 -1.1,0.1c-0.5,0 -1,-0.1 -1.5,-0.3c-0.5,-0.2 -0.9,-0.5 -1.3,-0.8c-0.4,-0.4 -0.7,-0.8 -0.9,-1.3c-0.2,-0.5 -0.3,-1 -0.3,-1.6l8.7,0c-0.2,-1.1 -0.3,-2 -0.4,-2.8zm-8.5,1c0,-0.4 0.1,-0.8 0.3,-1.2c0.1,-0.4 0.3,-0.8 0.6,-1.1c0.3,-0.3 0.6,-0.6 1,-0.8c0.4,-0.2 0.9,-0.3 1.4,-0.3c0.5,0 0.9,0.1 1.3,0.3c0.4,0.2 0.7,0.4 1,0.7c0.3,0.3 0.4,0.7 0.6,1.1c0.1,0.4 0.2,0.9 0.2,1.3l-6.4,0z" fill="#000000"/>
  <path id="svg_18" d="m159.9,8.9l-2.2,0.7l0,2.8l-2.7,0l0,1.8l2.7,0l0,7.1c0,1.2 0.3,2.1 1,2.7c0.7,0.6 1.6,0.8 2.7,0.8c0.4,0 0.7,0 1,-0.1c0.3,-0.1 0.6,-0.1 0.9,-0.2l0,-1.9c-0.2,0.1 -0.4,0.2 -0.6,0.3c-0.2,0.1 -0.5,0.1 -0.9,0.1c-0.5,0 -1,-0.2 -1.3,-0.5c-0.4,-0.4 -0.6,-0.9 -0.6,-1.6l0,-6.7l3.2,0l0,-1.8l-3.2,0l0,-3.5z" fill="#000000"/>
  <polygon id="svg_19" points="177.3,22.5 177.2,22.5 174.2,12.4 171.5,12.4 168.4,22.5 168.4,22.5 165.6,12.4 163.1,12.4 167,24.6 169.6,24.6 172.7,14.4 172.8,14.4 175.9,24.6 178.5,24.6 182.4,12.4 180.2,12.4" fill="#000000"/>
  <path id="svg_20" d="m193.3,13.9c-0.5,-0.6 -1.2,-1 -2,-1.3c-0.8,-0.3 -1.6,-0.5 -2.5,-0.5c-0.9,0 -1.8,0.2 -2.5,0.5c-0.8,0.3 -1.4,0.8 -2,1.3c-0.5,0.6 -1,1.2 -1.3,2c-0.3,0.8 -0.4,1.6 -0.4,2.6c0,0.9 0.2,1.7 0.5,2.5c0.3,0.8 0.7,1.4 1.3,2c0.5,0.6 1.2,1 2,1.4c0.8,0.3 1.6,0.5 2.5,0.5c0.9,0 1.7,-0.2 2.5,-0.5c0.8,-0.3 1.4,-0.8 2,-1.4c0.5,-0.6 1,-1.3 1.3,-2c0.3,-0.8 0.5,-1.6 0.5,-2.5c0,-0.9 -0.1,-1.8 -0.4,-2.6c-0.5,-0.8 -0.9,-1.4 -1.5,-2zm-0.9,6.2c-0.2,0.5 -0.4,1 -0.7,1.5s-0.7,0.8 -1.2,1.1c-0.5,0.3 -1,0.4 -1.7,0.4c-0.7,0 -1.2,-0.1 -1.7,-0.4c-0.5,-0.3 -0.9,-0.6 -1.2,-1.1c-0.3,-0.4 -0.5,-0.9 -0.7,-1.5c-0.2,-0.5 -0.2,-1.1 -0.2,-1.6c0,-0.6 0.1,-1.1 0.3,-1.7c0.2,-0.5 0.4,-1 0.8,-1.5c0.3,-0.4 0.7,-0.8 1.2,-1c0.5,-0.3 1,-0.4 1.6,-0.4c0.6,0 1.1,0.1 1.6,0.4c0.5,0.3 0.9,0.6 1.2,1c0.3,0.4 0.6,0.9 0.7,1.5c0.2,0.5 0.3,1.1 0.3,1.7c-0.1,0.5 -0.2,1.1 -0.3,1.6z" fill="#000000"/>
  <path id="svg_21" d="m202.1,12.1c-0.7,0 -1.3,0.2 -1.9,0.6c-0.6,0.4 -1,0.9 -1.3,1.6l0,0l0,-1.9l-2.1,0l0,12.2l2.2,0l0,-5.6c0,-1.5 0.3,-2.7 0.9,-3.6c0.6,-0.9 1.4,-1.3 2.4,-1.3c0.2,0 0.4,0 0.6,0c0.2,0 0.4,0.1 0.6,0.2l0,-2c-0.2,0 -0.5,-0.1 -0.7,-0.1c-0.1,-0.1 -0.3,-0.1 -0.7,-0.1z" fill="#000000"/>
  <polygon id="svg_22" points="209.5,17.8 215.1,12.4 212.1,12.4 207.2,17.3 207.2,6.7 204.9,6.7 204.9,24.6 207.2,24.6 207.2,18.3 212.6,24.6 215.8,24.6" fill="#000000"/>
  <path id="svg_23" d="m23.7,8.2l3.6,-3.6c-2.9,-2.8 -6.9,-4.6 -11.3,-4.6l0,5.1c3,0 5.7,1.2 7.7,3.1z" fill="#EF3E3A"/>
  <path id="svg_24" d="m23.7,8.2c2,2 3.3,4.7 3.3,7.8c0,6 -4.9,10.9 -10.9,10.9c0,0 0,0 -0.1,0l0,5.1c0,0 0,0 0,0c8.8,0 16,-7.2 16,-16c0,-4.4 -1.8,-8.5 -4.7,-11.4l-3.6,3.6z" fill="#000000"/>
  <path id="svg_25" d="m5.1,16c0,-1 0.1,-1.9 0.4,-2.8l-4.9,-1.3c-0.4,1.3 -0.6,2.7 -0.6,4.1c0,8.8 7.1,16 16,16l0,-5.1c-6,0 -10.9,-4.9 -10.9,-10.9z" fill="#b2b2b2"/>
  <path id="svg_26" d="m6.2,11.2c1.8,-3.6 5.5,-6.1 9.8,-6.1l0,-5.1c-6.3,0 -11.8,3.7 -14.4,9c-0.5,0.9 -0.8,1.9 -1.1,2.9l4.9,1.3c0.2,-0.7 0.5,-1.3 0.8,-2z" fill="#989898"/>
 </g>
</svg>